<?xml version="1.0" encoding="UTF-8" standalone="no"?>
<!-- Created with Inkscape (http://www.inkscape.org/) -->

<svg
   xmlns:dc="http://purl.org/dc/elements/1.1/"
   xmlns:cc="http://creativecommons.org/ns#"
   xmlns:rdf="http://www.w3.org/1999/02/22-rdf-syntax-ns#"
   xmlns:svg="http://www.w3.org/2000/svg"
   xmlns="http://www.w3.org/2000/svg"
   xmlns:sodipodi="http://sodipodi.sourceforge.net/DTD/sodipodi-0.dtd"
   xmlns:inkscape="http://www.inkscape.org/namespaces/inkscape"
   width="91.214813mm"
   height="28.348515mm"
   viewBox="0 0 91.214813 28.348515"
   version="1.1"
   id="svg13309"
   sodipodi:docname="Schwimmer.svg"
   inkscape:version="0.92.4 (5da689c313, 2019-01-14)">
  <defs
     id="defs13303" />
  <sodipodi:namedview
     id="base"
     pagecolor="#ffffff"
     bordercolor="#666666"
     borderopacity="1.0"
     inkscape:pageopacity="0.0"
     inkscape:pageshadow="2"
     inkscape:zoom="1.4"
     inkscape:cx="111.15549"
     inkscape:cy="30.545197"
     inkscape:document-units="mm"
     inkscape:current-layer="layer1"
     showgrid="false"
     inkscape:window-width="1920"
     inkscape:window-height="986"
     inkscape:window-x="-11"
     inkscape:window-y="-11"
     inkscape:window-maximized="1"
     fit-margin-top="0"
     fit-margin-left="0"
     fit-margin-right="0"
     fit-margin-bottom="0" />
  <metadata
     id="metadata13306">
    <rdf:RDF>
      <cc:Work
         rdf:about="">
        <dc:format>image/svg+xml</dc:format>
        <dc:type
           rdf:resource="http://purl.org/dc/dcmitype/StillImage" />
        <dc:title></dc:title>
      </cc:Work>
    </rdf:RDF>
  </metadata>
  <g
     inkscape:label="Schwimmer"
     inkscape:groupmode="layer"
     id="layer1"
     transform="translate(214.94076,-111.22455)">
    <path
       id="path13266"
       style="fill:#000000;fill-opacity:1;stroke:#000000;stroke-width:0.17135336px;stroke-linecap:butt;stroke-linejoin:miter;stroke-opacity:1"
       d="m -207.89225,136.4258 c -0.89271,0.84876 -1.76165,1.78072 -2.76307,2.24901 -0.90319,0.40678 -1.69956,0.54477 -2.42036,0.49265 -1.48257,-0.54584 -1.25325,-0.6248 -1.58502,-0.85677 -0.37934,-0.99918 -0.10475,-1.14455 0,-1.43508 0.47836,-0.5351 0.95672,-0.41681 1.43508,-0.40697 0.79596,0.30799 1.55247,0.44396 2.20618,0.62115 1.67697,0.29009 2.15667,-0.35973 3.12719,-0.66399 z m 72.56812,-4.41235 2.52746,-0.94244 c 1.15401,-0.51537 2.12871,-1.16875 2.91301,-2.0134 0.58906,-0.76231 0.50085,-1.77743 0.21419,-2.43108 -0.11736,-0.23454 -0.35639,-0.76545 -1.32799,-0.61787 -0.50258,0.23823 -0.9937,0.50511 -1.32799,1.16406 -0.32419,0.62941 -0.33981,1.67271 -0.89961,2.72174 -0.4886,0.84066 -1.30653,1.47175 -2.09907,2.11899 z m -73.91235,6.9479 c 6.12697,-4.79591 13.1974,-9.52205 18.65943,-12.02006 1.3217,-0.55917 1.42688,-0.76816 3.76355,-1.02133 2.01539,-0.97041 2.41543,-1.77982 4.74487,-3.26963 1.27543,-0.69883 4.73957,-1.59985 8.56397,-4.42327 1.68494,-1.24393 3.76782,-2.41854 5.50907,-3.43818 3.0676,-1.79633 5.73928,-3.41463 7.37661,-3.4779 1.5415,-0.0428 5.90464,1.81693 10.36756,3.19253 2.16494,0.6673 3.81953,1.27085 6.49391,1.21525 0.26775,-0.006 0.94564,-0.37104 0.88923,-0.13284 0.58436,-0.0657 0.71524,0.0367 1.12824,0.20395 0.36227,0.14673 0.643,0.44427 1.15212,0.48918 5.52955,0.48775 6.20159,1.06324 6.35265,1.0902 2.59544,0.4631 5.77005,3.04856 4.84661,2.78679 -0.18772,0.72222 0.95278,1.04038 0.61272,1.69631 -0.96192,0.60908 -2.54764,-1.15632 -4.49001,-1.02476 0.0599,0.16748 0.12813,0.33749 0.97722,0.74173 1.13165,0.39179 2.26466,1.12418 2.11249,1.67644 -1.62208,0.34543 -6.75588,-2.0183 -7.08816,-1.12291 -0.0218,0.42958 0.009,0.62712 2.66272,1.63574 0.52207,0.19842 0.79751,0.95962 0.40233,1.30464 -3.01768,-1.21713 -4.32076,-0.86366 -4.70077,-1.30253 -0.93127,-0.9435 -5.41437,-3.5714 -7.08817,-4.22839 -0.96065,-0.22779 -11.14961,-0.22626 -13.23367,-0.30673 l -2.63895,-0.40237 c -2.1393,2.25342 -3.63705,3.35457 -5.47777,5.0758 -1.53964,1.28394 -3.96322,3.99712 -3.96322,3.99712 -1.12506,2.56484 -0.3476,3.92903 -0.0922,4.4944 1.07359,0.0399 1.56613,-0.14251 2.61626,-1.38254 0.13082,-0.67182 -0.34625,-0.81761 -0.15146,-0.94671 1.53614,-0.6306 2.93032,-2.08651 3.06994,-2.09009 0.2987,-0.0561 0.58735,0.5109 0.45437,0.87035 3.75719,-1.82463 4.82192,-1.70339 6.83785,-1.77909 2.37983,-0.1632 3.72074,1.06278 5.1205,2.27184 0.51901,0.82448 1.07594,1.15585 1.52126,2.93827 0.19483,1.20048 0.49128,2.72935 0.39379,3.25736 l -56.19032,3.8005 c -1.87207,0.22929 -2.99939,0.28083 -1.51457,-0.36907 z m 0.54036,0.42966 c 4.78868,-1.80836 41.7097,0.34352 63.07133,-0.73257 5.51737,-0.5089 9.07723,-0.3501 12.11651,-1.29695 3.59283,-1.15194 6.57875,-2.60733 8.23923,-4.72544 0.64403,-0.96407 1.25903,-2.02058 1.30253,-2.37786 0.43588,-1.45003 -0.0881,-1.92075 -1.0602,-2.22642 -0.99,-0.17544 -1.74342,0.2237 -2.45395,0.727 -2.13489,1.98874 -3.3423,4.32608 -7.77162,5.45243 -5.27497,1.16029 -10.3985,1.27441 -15.76435,1.36311 -32.48639,2.22784 -53.65732,3.38704 -57.67948,3.8167 z"
       inkscape:connector-curvature="0"
       sodipodi:nodetypes="ccccccccccccccccccccsccccccccccccccccccccccccccccccccccccccccccc" />
  </g>
</svg>
